<svg xmlns="http://www.w3.org/2000/svg" enable-background="new 0 0 2641.31 2707.09" viewBox="0 0 2641.31 2707.09">
  <g>
    <g>
      <g>
        <path fill="#26195d" d="M2067.76,1569.83c-15.05-30.24-24.63-64.27-24.44-103.62c1.19-248.51,585.95-336.94,585.95-336.94s-9.02,1.34-24.86,2.88c15.85-2.01,24.86-2.88,24.86-2.88l-53.01-172.64c-458.73,58.37-846.33-202.1-846.33-202.1L1528.1,694.8c-97.6,37.21-320.91,85.45-544.04-122.73c-65.97-89.92-193.42-260.06-193.42-260.06l-7.65,96.02c0,0,239.53,446.69-35.05,531.68c-79.62,24.65-174.95,15.64-270.18-9.41L12.03,710.85l53.01,172.63c0,0,17.78,7.97,47.11,22.06c-18.57-8.32-32.47-14.91-40.1-18.61c64.43,31.99,556.94,283.45,505.91,471.18c-14.15,52.05-40.95,98.1-72.75,137.95c-129.07,38.49-276.3,3.66-276.3,3.66l53.01,172.64c0,0,351.28,3.7,416.19,190.9c-95.35,215.85-323.08,429.33-323.08,429.33l53.01,172.63c0,0,27.26-37.77,72.01-90.85c-41.18,55.27-72.01,90.85-72.01,90.85s319.33-341.36,596.25-216.16c209.03,94.5,273.6,445.97,273.6,445.97s33.08-423.53,282.94-488.33c249.86-64.8,765.49,378.49,765.49,378.49s-13.81-13.16-35.34-36.16c22.6,22.69,35.34,36.16,35.34,36.16l-53.01-172.64c0,0-132.66-149.79-233.62-301.2c-6.7-50.89-2.43-101.07,18.4-147.69c97.58-218.44,323.71-192.86,323.71-192.86l-53.01-172.64C2348.79,1598.18,2187.31,1599.56,2067.76,1569.83z"/>
      </g>
      <g>
        <path fill="#26195d" d="M72.06,886.93c-4.49-2.23-7.01-3.45-7.01-3.45S67.53,884.74,72.06,886.93z"/>
      </g>
    </g>
    <g>
      <path fill="#fc5372" d="M2345,1597.93c-30.82-1.93-230.18-8.19-319.75,193.1c-110.76,247.51,241.26,595.67,266.78,620.71c-28.41-24.56-521.51-440.61-764.21-377.53c-249.92,64.53-283.15,488.29-283.15,488.29s-1.93-309.16-273.52-445.91c-254.74-128.58-557.63,175.76-592.78,212.36c32.74-38.52,313.01-376.57,273.52-574.97c-42.38-210.44-422.8-214.29-422.8-214.29s255.7-50.08,310.12-250.88c52.49-192.14-478.18-509-523.92-535.96c47.67,23.11,575.45,275.93,776.74,70.79c157.95-160.83,78.49-345.27,28.41-427.61c-11.07-18.3-20.71-31.78-26-38.52c-0.96-0.96-1.45-2.41-2.41-3.37c319.74,384.76,768.55,219.59,768.55,219.59c38.04,91.01,102.57,162.76,181.06,219.11c308.67,221.51,834.52,203.69,834.52,203.69s-584.6,88.6-586.04,337.08C1989.13,1526.66,2305.51,1590.71,2345,1597.93z"/>
    </g>
    <g>
      <path fill="#db315e" d="M2345,1597.93c-30.82-1.93-230.18-8.19-319.75,193.1c-110.76,247.51,241.26,595.67,266.78,620.71c-28.41-24.56-521.51-440.61-764.21-377.53c-249.92,64.53-283.15,488.29-283.15,488.29s-1.93-309.16-273.52-445.91c-254.74-128.58-557.63,175.76-592.78,212.36c32.74-38.52,313.01-376.57,273.52-574.97c-42.38-210.44-422.8-214.29-422.8-214.29s255.7-50.08,310.12-250.88c52.49-192.14-478.18-509-523.92-535.96c47.67,23.11,575.45,275.93,776.74,70.79c157.95-160.83,78.49-345.27,28.41-427.61c332.64,656.45-342.86,574.49-342.86,574.49c281.81,232.77,91.98,564.85,91.98,564.85c340.93,108.35,124.24,464.21,124.24,464.21c278.34-216.7,587.97,108.35,587.97,108.35c76.09-364.05,598.56-88.61,618.79-78.01c-138.69-293.26,167.1-419.91,167.1-419.91s-213.32-59.23-228.73-245.11c-15.41-185.4,216.7-355.86,216.7-355.86c-247.52-92.94-325.53-214.29-325.53-214.29s3.85-0.48,11.56-1.93c308.67,221.51,834.52,203.69,834.52,203.69s-584.6,88.6-586.04,337.08C1989.13,1526.66,2305.51,1590.71,2345,1597.93z"/>
    </g>
    <g>
      <g>
        <polygon fill="#fec76c" points="1401.65 1265.67 1349.64 1506.92 1273.56 1504.51 1115.61 1499.7 1197.47 1236.77 1360.23 1259.89"/>
      </g>
      <g>
        <polygon fill="#f79a4d" points="1859.11 23.28 1445.95 1065.34 1388.16 1052.82 1740.66 19.42"/>
      </g>
      <g>
        <polygon fill="#f79a4d" points="1401.65 1265.67 1349.64 1506.92 1273.56 1504.51 1268.26 1502.59 1332.78 1263.26 1360.23 1259.89"/>
      </g>
      <g>
        <polygon fill="#fec76c" points="1859.11 23.28 1445.95 1065.34 1388.16 1052.82 1276.93 1029.23 1513.36 12.2 1740.66 19.42"/>
      </g>
      <g>
        <polygon fill="#f79a4d" points="1859.11 23.28 1445.95 1065.34 1388.16 1052.82 1740.66 19.42"/>
      </g>
    </g>
    <g>
      <path fill="#fff" d="M1692.08,57.73c-47.43,3.01-94.86,5.33-142.29,6.82l6.62-5.21c-25.35,123.16-53.53,245.64-83.98,367.57c-30.22,121.99-62.38,243.5-99.43,363.84c21.88-124,48.64-246.82,77.35-369.17c28.48-122.41,59.23-244.27,92.81-365.44l1.49-5.38l5.14,0.16C1597.23,52.4,1644.66,54.72,1692.08,57.73z"/>
    </g>
    <g>
      <g>
        <path fill="#fff" d="M1308.33,609.65c-29.23,1.7-58.56,2.6-87.95,1.58c-29.34-1.36-58.8-3.41-87.93-8.54c-29.1-5.1-57.93-12.35-85.95-22.43c-28.04-10.54-55.03-22.25-80.47-41.33l15.03-8.03c6.42,63.87-1.54,127.88-23.99,187.88c-22.26,59.85-62.15,113.86-114.56,151.42c-52.56,37.56-114.75,58.51-177.26,67.88c-62.69,9.88-126.08,8.58-188.46,2.97L484,921.5c43.04,33.76,77.74,74.62,104.53,121.02c26.46,46.29,44.6,97.59,51.02,150.42c14.62,106.47-19.28,212.23-70.02,302.42c46.57-93.02,71.56-198.65,55.48-300.33c-7.7-50.67-26.58-99.18-53.17-142.62c-26.62-43.1-60.75-83.24-100.3-113.31l-29.62-22.52l36.83,2.97c61.11,4.93,122.87,5.55,182.86-4.52c59.78-9.98,118.22-29.39,167.5-63.66c48.97-34.49,86.43-84,108-140.24c21.68-56,29.7-118.34,25.84-177.95l-1.38-21.33l16.41,13.3c20.86,16.9,47.57,30.27,73.86,41.08c26.68,10.83,54.61,18.65,82.85,25.13c28.2,6.91,57.09,10.84,86.07,14.1C1249.81,608.41,1279.03,609.44,1308.33,609.65z"/>
      </g>
    </g>
  </g>
</svg>
