<svg preserveAspectRatio="none" width="100%" height="100%" overflow="visible" style="display: block;" viewBox="0 0 16 16" fill="none" xmlns="http://www.w3.org/2000/svg">
<g id="Icon Mask">
<g id="Like - Dislike">
<g id="Like">
<g id="Union">
<path fill-rule="evenodd" clip-rule="evenodd" d="M3.33333 6.66668C3.70152 6.66668 4 6.96516 4 7.33335V12.6667C3.99999 13.0349 3.70152 13.3333 3.33333 13.3333H2C1.63182 13.3333 1.33334 13.0349 1.33333 12.6667V7.33335C1.33333 6.96516 1.63181 6.66668 2 6.66668H3.33333ZM2 12.6667H3.33333V7.33335H2V12.6667Z" fill="var(--fill-0, black)"/>
<path fill-rule="evenodd" clip-rule="evenodd" d="M9.28385 1.6133C9.43835 1.4588 9.68926 1.4588 9.84375 1.6133L10.2409 2.01043C10.4123 2.19038 10.524 2.43036 10.5241 2.69598L10.5065 2.89325L10.0397 5.14325C9.99208 5.37338 10.1539 5.59031 10.3809 5.61655L10.4271 5.61916H14.3809C14.8522 5.61916 15.2381 6.00463 15.2383 6.47593V7.54754L15.2318 7.66929C15.2193 7.79064 15.1889 7.90959 15.1439 8.0189L13.207 12.5534C13.0099 13.0076 12.5554 13.3333 12.0241 13.3333H6.23828L6.10677 13.3268C5.50055 13.2656 5.0202 12.7853 4.95898 12.1791L4.95247 12.0475V6.47593C4.95254 6.16863 5.06398 5.88096 5.24674 5.65887L5.32943 5.56772L9.28385 1.6133ZM5.80078 6.03908C5.68903 6.1509 5.61922 6.3091 5.61914 6.47593V12.0475C5.61915 12.3908 5.89505 12.6667 6.23828 12.6667H12.0241C12.2444 12.6666 12.4424 12.5481 12.5534 12.3685L12.5951 12.2878L14.5273 7.76369C14.5555 7.69486 14.5716 7.61868 14.5716 7.54754V6.47593C14.5715 6.37281 14.484 6.28582 14.3809 6.28582H10.4271C9.75371 6.28576 9.25065 5.66716 9.38737 5.00783L9.8457 2.79819L9.85547 2.68296C9.85206 2.61385 9.82344 2.54006 9.76107 2.47332L9.5638 2.27606L5.80078 6.03908Z" fill="var(--fill-0, black)"/>
</g>
</g>
</g>
</g>
</svg>
