<svg preserveAspectRatio="none" width="100%" height="100%" overflow="visible" style="display: block;" viewBox="0 0 20 20" fill="none" xmlns="http://www.w3.org/2000/svg">
<g id="gift 4">
<path id="Vector" fill-rule="evenodd" clip-rule="evenodd" d="M5.05892 6.45823C4.66815 6.11444 4.36855 5.68703 4.23747 5.197C4.07517 4.59033 4.19068 3.95445 4.59706 3.38591C5.06702 2.72843 5.76394 2.46993 6.47743 2.50276C7.15029 2.5337 7.82338 2.81733 8.40292 3.19291C8.96217 3.55537 9.508 4.05337 9.94242 4.62144C10.466 3.80834 11.1878 3.0904 11.9304 2.59065C12.5893 2.14717 13.3547 1.81226 14.1199 1.77572C14.9312 1.73696 15.7238 2.04219 16.2582 2.81854C16.7203 3.48986 16.8517 4.24071 16.6671 4.95706C16.5166 5.54136 16.1707 6.05027 15.7199 6.45823L15.9235 6.45818C16.3768 6.45777 16.7412 6.45743 17.0557 6.55659C17.7169 6.76508 18.2348 7.28302 18.4433 7.94423C18.5425 8.25872 18.5422 8.62308 18.5418 9.07642L18.5417 9.16658L18.5418 9.25675C18.5422 9.71008 18.5425 10.0744 18.4433 10.3889C18.2348 11.0502 17.7169 11.5681 17.0557 11.7766C16.7412 11.8757 16.3768 11.8753 15.9235 11.8749H10.625V6.69902H9.375V11.8749H4.07653C3.6232 11.8753 3.25882 11.8757 2.94434 11.7766C2.28312 11.5681 1.76517 11.0502 1.55669 10.3889C1.45753 10.0744 1.45787 9.71008 1.45828 9.25675L1.45834 9.16658L1.45828 9.07642C1.45787 8.62308 1.45753 8.25872 1.55669 7.94423C1.76517 7.28302 2.28312 6.76508 2.94434 6.55659C3.25882 6.45743 3.6232 6.45777 4.07653 6.45818L5.05892 6.45823ZM12.8609 3.97334C12.1335 4.4629 11.5009 5.17756 11.136 5.88227C12.5438 6.20527 13.7535 5.87533 14.4473 5.35003C14.8018 5.08166 14.989 4.79029 15.0531 4.54125C15.1118 4.31372 15.0869 4.05638 14.8853 3.76358C14.7173 3.51935 14.5075 3.42578 14.1994 3.44048C13.8451 3.45742 13.3737 3.62827 12.8609 3.97334ZM7.58457 4.36391C8.22427 4.7785 8.78058 5.38373 9.10142 5.98056C7.86346 6.25409 6.79968 5.97467 6.18954 5.52981C5.87783 5.30253 5.71319 5.05576 5.65677 4.84486C5.60522 4.65215 5.62708 4.43422 5.80433 4.18625C5.95217 3.97942 6.13656 3.90017 6.40751 3.91262C6.71913 3.92696 7.13365 4.07165 7.58457 4.36391Z" fill="var(--fill-0, white)"/>
<path id="Vector_2" d="M4.16667 12.9167H9.375V18.5416H8.70425C7.56464 18.5417 6.64601 18.5417 5.92355 18.4445C5.17346 18.3437 4.5419 18.1279 4.0403 17.6263C3.5387 17.1247 3.32296 16.4932 3.22211 15.7431C3.12497 15.0206 3.12499 14.102 3.12501 12.9623V12.8762C3.45301 12.9195 3.77857 12.9182 4.04802 12.917C4.08892 12.9168 4.12853 12.9167 4.16667 12.9167ZM11.2958 18.5416H10.625V12.9167H15.8333C15.8714 12.9167 15.9113 12.9168 15.9522 12.917C16.2216 12.9182 16.547 12.9195 16.875 12.8762V12.9623C16.875 14.102 16.875 15.0206 16.7779 15.7431C16.6771 16.4932 16.4613 17.1247 15.9597 17.6263C15.4581 18.1279 14.8266 18.3437 14.0765 18.4445C13.354 18.5417 12.4353 18.5417 11.2958 18.5416Z" fill="var(--fill-0, white)"/>
</g>
</svg>
