<svg preserveAspectRatio="none" width="100%" height="100%" overflow="visible" style="display: block;" viewBox="0 0 12 12" fill="none" xmlns="http://www.w3.org/2000/svg">
<g id="bulb 1" clip-path="url(#clip0_0_33)">
<path id="Vector" d="M5.82996 1.63968C6.09848 1.63968 6.31579 1.42236 6.31579 1.15385V0.48583C6.31579 0.217263 6.09848 0 5.82996 0C5.56139 0 5.34413 0.217263 5.34413 0.48583V1.15385C5.34413 1.42236 5.56139 1.63968 5.82996 1.63968ZM9.95237 2.39451C10.1421 2.20475 10.1421 1.89726 9.95237 1.7075C9.76261 1.51773 9.45517 1.51773 9.26536 1.7075L8.79284 2.18006C8.60308 2.36983 8.60308 2.67726 8.79284 2.86703C8.98261 3.05679 9.29004 3.05684 9.47981 2.86703L9.95237 2.39451ZM10.5061 6.3153H11.1741C11.4426 6.3153 11.6599 6.09799 11.6599 5.82947C11.6599 5.56096 11.4426 5.34364 11.1741 5.34364H10.5061C10.2375 5.34364 10.0202 5.56096 10.0202 5.82947C10.0202 6.09799 10.2375 6.3153 10.5061 6.3153ZM0.48583 6.3153H1.15385C1.42236 6.3153 1.63968 6.09799 1.63968 5.82947C1.63968 5.56096 1.42236 5.34364 1.15385 5.34364H0.48583C0.217263 5.34364 0 5.56096 0 5.82947C0 6.09799 0.217263 6.3153 0.48583 6.3153ZM2.1805 2.86703C2.37027 3.05679 2.67775 3.05684 2.86751 2.86703C3.05728 2.67726 3.05728 2.36983 2.86751 2.18006L2.39495 1.7075C2.20518 1.51773 1.89775 1.51773 1.70798 1.7075C1.51822 1.89726 1.51822 2.20475 1.70798 2.39451L2.1805 2.86703ZM4.85461 11.6659H6.79793C7.33234 11.6659 7.76959 11.2287 7.76959 10.6943H3.88295C3.88295 11.2287 4.32024 11.6659 4.85461 11.6659ZM7.76959 8.5956C8.64894 7.97859 9.22222 6.96326 9.22222 5.81179C9.22222 3.7081 7.31781 2.05137 5.1413 2.47409C3.80526 2.73644 2.73153 3.81984 2.48376 5.16087C2.22146 6.57945 2.83841 7.87657 3.88295 8.60055V9.72263H7.76959V8.5956Z" fill="var(--fill-0, #B8B6B6)"/>
</g>
<defs>
<clipPath id="clip0_0_33">
<rect width="12" height="12" fill="white"/>
</clipPath>
</defs>
</svg>
