<svg preserveAspectRatio="none" width="100%" height="100%" overflow="visible" style="display: block;" viewBox="0 0 16 16" fill="none" xmlns="http://www.w3.org/2000/svg">
<g id="image" clip-path="url(#clip0_0_35)">
<path id="Bg" d="M4.53613 0.5H11.4717C12.7049 0.500111 13.7015 0.930418 14.3906 1.65039C15.0815 2.37236 15.5 3.42454 15.5 4.73145V10.1621C15.5 11.0782 15.4455 12.4264 14.8584 13.5371C14.5705 14.0817 14.1561 14.5641 13.5547 14.9141C12.9516 15.265 12.1298 15.5 11 15.5H4C3.10347 15.5 2.26336 15.235 1.63379 14.4795C0.989831 13.7065 0.5 12.3425 0.5 10V4.73145C0.5 3.42454 0.91856 2.37233 1.61035 1.65039C2.30045 0.930326 3.29911 0.5 4.53613 0.5Z" stroke="var(--stroke-0, white)"/>
<path id="Shape" d="M16 10.1616V11.2688C16 11.4528 15.992 11.6376 15.976 11.8208C15.752 14.3488 13.996 16 11.4632 16H4.53599C3.25359 16 2.17119 15.584 1.39359 14.8288C1.08577 14.5459 0.828472 14.2126 0.632786 13.8432C0.896786 13.5216 1.19279 13.1696 1.48239 12.8168C1.90831 12.3088 2.32781 11.7954 2.74079 11.2768C3.18079 10.7312 4.34399 9.29599 5.95519 9.96959C6.28319 10.1056 6.57199 10.2976 6.83679 10.4664C7.48639 10.9 7.75839 11.028 8.21519 10.7792C8.72079 10.5072 9.04959 9.96959 9.39359 9.40799C9.57759 9.11039 9.76239 8.82239 9.96319 8.55759C10.8368 7.41919 12.1832 7.11439 13.3056 7.78799C13.8672 8.12399 14.348 8.54959 14.7968 8.98239C14.8928 9.07839 14.9888 9.16719 15.0768 9.25519C15.1968 9.37519 15.5992 9.77679 16 10.1616Z" fill="var(--fill-0, white)"/>
<path id="Shape_2" d="M7.56321 5.4376C7.55841 5.98359 7.33944 6.50588 6.95342 6.89204C6.5674 7.27821 6.0452 7.49739 5.49921 7.5024C4.37281 7.5024 3.43521 6.564 3.43521 5.4376C3.43521 4.3112 4.37281 3.372 5.49921 3.372C6.62481 3.372 7.56321 4.3112 7.56321 5.4376Z" fill="var(--fill-0, white)"/>
</g>
<defs>
<clipPath id="clip0_0_35">
<rect width="16" height="16" fill="white"/>
</clipPath>
</defs>
</svg>
