<svg preserveAspectRatio="none" width="100%" height="100%" overflow="visible" style="display: block;" viewBox="0 0 20 20" fill="none" xmlns="http://www.w3.org/2000/svg">
<g id="Asterisk">
<rect width="20" height="20" rx="10" fill="var(--fill-0, white)" fill-opacity="0.1"/>
<path id="*" d="M7.71816 14.4004L6.41344 13.373C6.27506 13.2692 6.19599 13.1239 6.17622 12.9371C6.15645 12.7296 6.18611 12.5635 6.26518 12.439C6.26518 12.4182 6.32448 12.3456 6.4431 12.221L8.57809 10.1663L5.67213 9.82379C5.59305 9.80303 5.53375 9.79265 5.49421 9.79265C5.47444 9.7719 5.45467 9.76152 5.43491 9.76152C5.29653 9.72001 5.17792 9.61623 5.07907 9.45019C5 9.26339 4.98023 9.07659 5.01977 8.88979L5.55352 7.27086C5.59305 7.10481 5.70178 6.98028 5.8797 6.89726C6.05761 6.81424 6.21576 6.79348 6.35414 6.83499C6.37391 6.83499 6.45298 6.86613 6.59136 6.92839L9.14149 8.45392L8.54843 5.434C8.52866 5.35097 8.51878 5.29909 8.51878 5.27833C8.51878 5.23682 8.51878 5.20569 8.51878 5.18493C8.51878 5.01889 8.57808 4.86322 8.6967 4.71793C8.83507 4.57264 8.99322 4.5 9.17114 4.5H10.802C10.9799 4.5 11.1282 4.57264 11.2468 4.71793C11.3852 4.86322 11.4544 5.01889 11.4544 5.18493C11.4544 5.20569 11.4544 5.23682 11.4544 5.27833C11.4544 5.29909 11.4445 5.35097 11.4247 5.434L10.8317 8.45392L13.4115 6.92839C13.5498 6.86613 13.6289 6.83499 13.6487 6.83499C13.8068 6.79348 13.965 6.81424 14.1231 6.89726C14.301 6.98028 14.4098 7.10481 14.4493 7.27086L14.9831 8.88979C15.0226 9.07659 14.9929 9.26339 14.8941 9.45019C14.815 9.61623 14.6964 9.72001 14.5383 9.76152C14.5185 9.76152 14.4888 9.7719 14.4493 9.79265C14.4295 9.79265 14.39 9.80303 14.3307 9.82379L11.3951 10.1663L13.5597 12.221C13.6783 12.3456 13.7376 12.4182 13.7376 12.439C13.8365 12.5635 13.876 12.7296 13.8563 12.9371C13.8365 13.1239 13.7475 13.2692 13.5894 13.373L12.2847 14.4004C12.1265 14.4834 11.9585 14.5145 11.7806 14.4938C11.6027 14.473 11.4643 14.39 11.3654 14.2447C11.3654 14.224 11.3555 14.2032 11.3358 14.1824C11.316 14.1617 11.2864 14.1098 11.2468 14.0268L10.0014 11.1936L8.756 14.0268C8.73623 14.1098 8.70658 14.1617 8.66704 14.1824C8.64727 14.2032 8.63739 14.224 8.63739 14.2447C8.55832 14.39 8.41994 14.473 8.22225 14.4938C8.04434 14.5145 7.87631 14.4834 7.71816 14.4004Z" fill="var(--fill-0, white)" fill-opacity="0.6"/>
</g>
</svg>
