<svg preserveAspectRatio="none" width="100%" height="100%" overflow="visible" style="display: block;" viewBox="0 0 16 16" fill="none" xmlns="http://www.w3.org/2000/svg">
<g id="Icon Mask">
<g id="Restart">
<path id="Union" d="M5.50193 1C5.77797 1.00012 6.00193 1.22393 6.00193 1.5V5.5L5.99216 5.60059C5.94565 5.82848 5.74354 5.9999 5.50193 6C5.26023 6 5.05824 5.82853 5.01169 5.60059L5.00193 5.5V2.79492C4.98466 2.80848 4.96764 2.82349 4.94822 2.83496C3.64346 3.60619 2.62914 4.86818 2.20603 6.44727C1.34849 9.64801 3.24845 12.9383 6.44919 13.7959C9.64985 14.6533 12.9392 12.7534 13.7968 9.55273C14.6544 6.35197 12.7554 3.06174 9.55466 2.2041C9.28796 2.13261 9.12968 1.85851 9.20115 1.5918C9.27274 1.32527 9.54684 1.16688 9.81345 1.23828C13.5476 2.23884 15.764 6.07737 14.7636 9.81152C13.7631 13.5456 9.92453 15.762 6.1904 14.7617C2.4562 13.7611 0.239733 9.92268 1.24021 6.18848C1.72921 4.36351 2.89766 2.90117 4.39841 2H1.50193C1.22579 2 1.00193 1.77614 1.00193 1.5C1.00193 1.22386 1.22579 1 1.50193 1H5.50193ZM4.98923 2C4.9937 2.00326 4.99756 2.00733 5.00193 2.01074V2H4.98923Z" fill="var(--fill-0, white)"/>
</g>
</g>
</svg>
