<svg preserveAspectRatio="none" width="100%" height="100%" overflow="visible" style="display: block;" viewBox="0 0 20 20" fill="none" xmlns="http://www.w3.org/2000/svg">
<g id="Icon Mask">
<g id="Call" clip-path="url(#clip0_0_189)">
<path id="Vector" d="M16.2 10.8333C16.0167 10.8333 15.825 10.775 15.6417 10.7333C15.2704 10.6515 14.9056 10.5429 14.55 10.4083C14.1634 10.2677 13.7385 10.275 13.3569 10.4288C12.9754 10.5827 12.6642 10.8722 12.4833 11.2417L12.3 11.6167C11.4883 11.1651 10.7425 10.6044 10.0833 9.95C9.42897 9.29085 8.86819 8.545 8.41667 7.73333L8.76667 7.5C9.13614 7.3191 9.42565 7.00794 9.57949 6.62641C9.73334 6.24488 9.74064 5.81993 9.6 5.43333C9.46769 5.07702 9.35911 4.71233 9.275 4.34167C9.23333 4.15833 9.2 3.96667 9.175 3.775C9.0738 3.18802 8.76635 2.65645 8.30802 2.27603C7.84968 1.89561 7.27058 1.69134 6.675 1.7H4.175C3.81586 1.69663 3.46021 1.77068 3.13226 1.91711C2.80431 2.06354 2.51176 2.27891 2.27453 2.54857C2.03729 2.81822 1.86095 3.13583 1.75749 3.47976C1.65403 3.8237 1.6259 4.18588 1.675 4.54167C2.11895 8.03282 3.71336 11.2766 6.20638 13.7605C8.6994 16.2445 11.9489 17.8271 15.4417 18.2583H15.7583C16.3728 18.2592 16.9662 18.0338 17.425 17.625C17.6886 17.3892 17.8992 17.1001 18.0429 16.7769C18.1865 16.4537 18.26 16.1037 18.2583 15.75V13.25C18.2481 12.6712 18.0373 12.1138 17.6619 11.6731C17.2866 11.2323 16.7698 10.9355 16.2 10.8333ZM16.6167 15.8333C16.6165 15.9517 16.5912 16.0686 16.5423 16.1764C16.4935 16.2841 16.4222 16.3802 16.3333 16.4583C16.2402 16.5387 16.1313 16.5988 16.0137 16.6347C15.896 16.6705 15.7721 16.6814 15.65 16.6667C12.5291 16.2665 9.6302 14.8387 7.4106 12.6086C5.191 10.3784 3.77701 7.47278 3.39167 4.35C3.3784 4.22793 3.39003 4.10444 3.42583 3.98699C3.46164 3.86954 3.52089 3.76057 3.6 3.66667C3.67809 3.57778 3.77422 3.50653 3.88198 3.45768C3.98975 3.40883 4.10668 3.38348 4.225 3.38333H6.725C6.91879 3.37902 7.10802 3.4424 7.26012 3.56256C7.41222 3.68272 7.51767 3.85214 7.55833 4.04167C7.59167 4.26944 7.63333 4.49444 7.68333 4.71667C7.7796 5.15595 7.90772 5.58765 8.06667 6.00833L6.9 6.55C6.80025 6.59577 6.71052 6.66079 6.63596 6.74133C6.56141 6.82187 6.5035 6.91635 6.46556 7.01933C6.42762 7.12231 6.41039 7.23178 6.41487 7.34144C6.41935 7.45109 6.44545 7.55879 6.49167 7.65833C7.691 10.2273 9.75604 12.2923 12.325 13.4917C12.5279 13.575 12.7554 13.575 12.9583 13.4917C13.0623 13.4545 13.1578 13.397 13.2393 13.3227C13.3209 13.2483 13.3868 13.1584 13.4333 13.0583L13.95 11.8917C14.3808 12.0457 14.8205 12.1737 15.2667 12.275C15.4889 12.325 15.7139 12.3667 15.9417 12.4C16.1312 12.4407 16.3006 12.5461 16.4208 12.6982C16.5409 12.8503 16.6043 13.0395 16.6 13.2333L16.6167 15.8333Z" fill="var(--fill-0, black)"/>
<g id="Credit" clip-path="url(#clip1_0_189)">
<path id="Star 34" d="M16.0359 0.873755C16.1381 0.597637 16.5286 0.597637 16.6308 0.873755L16.779 1.27425C17.1425 2.48839 17.2222 2.44444 18.3924 2.8877L18.7929 3.03589C19.069 3.13806 19.069 3.5286 18.7929 3.63077L18.3924 3.77897C17.2222 4.22222 17.2222 4.22222 16.779 5.39242L16.6308 5.79291C16.5286 6.06903 16.1381 6.06903 16.0359 5.79291L15.8877 5.39242C15.4444 4.22222 15.4444 4.22222 14.2742 3.77897L13.8738 3.63077C13.5976 3.5286 13.5976 3.13806 13.8738 3.03589L14.2742 2.8877C15.4444 2.44444 15.4444 2.44444 15.8877 1.27425L16.0359 0.873755Z" fill="var(--fill-0, #D9D9D9)"/>
</g>
</g>
</g>
<defs>
<clipPath id="clip0_0_189">
<rect width="20" height="20" fill="white"/>
</clipPath>
<clipPath id="clip1_0_189">
<rect width="6.66667" height="6.66667" fill="white" transform="translate(13.3333)"/>
</clipPath>
</defs>
</svg>
