<svg preserveAspectRatio="none" width="100%" height="100%" overflow="visible" style="display: block;" viewBox="0 0 20 20" fill="none" xmlns="http://www.w3.org/2000/svg">
<g id="Icon Mask">
<g id="Icon">
<g id="Group 2">
<path id="Vector" d="M10.0043 12.875C11.3849 12.875 12.5044 11.6187 12.5044 10.0686V4.43144C12.5043 2.88182 11.3847 1.625 10.0043 1.625C8.62349 1.625 7.50443 2.88182 7.50443 4.43144V10.0686C7.50427 11.6187 8.62333 12.875 10.0043 12.875Z" fill="var(--fill-0, #0397EB)"/>
<path id="Vector_2" d="M13.9308 8.75V9.94704C13.9308 12.3201 12.1697 14.2502 10.0043 14.2502C7.83899 14.2502 6.07785 12.3201 6.07785 9.94704V8.75H5.00443V9.94704C5.00443 12.7699 6.9621 15.1001 9.46763 15.3947V17.5734H6.51459V18.75H13.4944V17.5734H10.5412V15.3947C13.0467 15.1003 15.0044 12.77 15.0044 9.94704V8.75H13.9308Z" fill="var(--fill-0, #0397EB)"/>
</g>
</g>
</g>
</svg>
