<svg preserveAspectRatio="none" width="100%" height="100%" overflow="visible" style="display: block;" viewBox="0 0 16 16" fill="none" xmlns="http://www.w3.org/2000/svg">
<g id="Icon Mask">
<g id="Like - Dislike">
<g id="Like">
<g id="Union">
<path fill-rule="evenodd" clip-rule="evenodd" d="M13.3333 9.33332C12.9651 9.33332 12.6667 9.03484 12.6667 8.66665V3.33332C12.6667 2.96514 12.9651 2.66665 13.3333 2.66665H14.6667C15.0349 2.66665 15.3333 2.96513 15.3333 3.33332V8.66665C15.3333 9.03484 15.0349 9.33332 14.6667 9.33332H13.3333ZM14.6667 3.33332H13.3333V8.66665H14.6667V3.33332Z" fill="var(--fill-0, black)"/>
<path fill-rule="evenodd" clip-rule="evenodd" d="M7.38281 14.3867C7.22832 14.5412 6.97741 14.5412 6.82292 14.3867L6.42578 13.9896C6.25441 13.8096 6.14264 13.5696 6.14258 13.304L6.16016 13.1068L6.62695 10.8568C6.67459 10.6266 6.51278 10.4097 6.28581 10.3834L6.23958 10.3808H2.28581C1.81447 10.3808 1.42854 9.99537 1.42838 9.52407V8.45246L1.4349 8.33071C1.44733 8.20936 1.47779 8.09041 1.52279 7.9811L3.45963 3.4466C3.65676 2.99237 4.11123 2.66673 4.64258 2.66665H10.4284L10.5599 2.67316C11.1661 2.73437 11.6465 3.21473 11.7077 3.82095L11.7142 3.95246V9.52407C11.7141 9.83137 11.6027 10.119 11.4199 10.3411L11.3372 10.4323L7.38281 14.3867ZM10.8659 9.96092C10.9776 9.8491 11.0474 9.6909 11.0475 9.52407V3.95246C11.0475 3.60923 10.7716 3.33332 10.4284 3.33332H4.64258C4.42228 3.33338 4.2243 3.45191 4.11328 3.63149L4.07161 3.71222L2.13932 8.23631C2.11118 8.30514 2.09505 8.38132 2.09505 8.45246V9.52407C2.09521 9.62719 2.18266 9.71418 2.28581 9.71418H6.23958C6.91295 9.71424 7.41602 10.3328 7.2793 10.9922L6.82096 13.2018L6.8112 13.317C6.8146 13.3862 6.84322 13.4599 6.9056 13.5267L7.10286 13.7239L10.8659 9.96092Z" fill="var(--fill-0, black)"/>
</g>
</g>
</g>
</g>
</svg>
