<svg preserveAspectRatio="none" width="100%" height="100%" overflow="visible" style="display: block;" viewBox="0 0 24.0045 24" fill="none" xmlns="http://www.w3.org/2000/svg">
<g id="Icon Mask">
<g id="AI Chat">
<path id="Shape 01" d="M21.5 9.5V6.5C21.5 5.39543 20.6046 4.5 19.5 4.5L4.5 4.5C3.39543 4.5 2.5 5.39543 2.5 6.5V16.5C2.5 17.6046 3.39543 18.5 4.5 18.5H6.50002V22.5L11.5 18.5H14.5" stroke="var(--stroke-0, white)" stroke-width="1.5" stroke-miterlimit="10" stroke-linecap="round" stroke-linejoin="round"/>
<circle id="Shape 02" cx="8" cy="11" r="1" fill="var(--fill-0, white)"/>
<circle id="Shape 03" cx="12" cy="11" r="1" fill="var(--fill-0, white)"/>
<path id="Vector" d="M18.8361 10.1096C18.8924 9.95745 19.1076 9.95745 19.1639 10.1096C19.792 11.807 20.1061 12.6557 20.7252 13.2748C21.3443 13.8939 22.193 14.208 23.8904 14.8361C24.0425 14.8924 24.0425 15.1076 23.8904 15.1639C22.193 15.792 21.3443 16.1061 20.7252 16.7252C20.1061 17.3443 19.792 18.193 19.1639 19.8904C19.1076 20.0425 18.8924 20.0425 18.8361 19.8904C18.208 18.193 17.8939 17.3443 17.2748 16.7252C16.6557 16.1061 15.807 15.792 14.1096 15.1639C13.9574 15.1076 13.9574 14.8924 14.1096 14.8361C15.807 14.208 16.6557 13.8939 17.2748 13.2748C17.8939 12.6557 18.208 11.807 18.8361 10.1096Z" fill="var(--fill-0, white)"/>
</g>
</g>
</svg>
