<svg preserveAspectRatio="none" width="100%" height="100%" overflow="visible" style="display: block;" viewBox="0 0 20 20" fill="none" xmlns="http://www.w3.org/2000/svg">
<g id="Icon Mask">
<g id="Gallery" clip-path="url(#clip0_0_208)">
<g id="image">
<path id="Bg" d="M4.60645 0.5H11.6504C12.905 0.5 13.9195 0.936995 14.6211 1.66992C15.3245 2.40478 15.7499 3.47569 15.75 4.80469V10.3213C15.75 11.2518 15.6939 12.6221 15.0967 13.752C14.8037 14.3061 14.3827 14.798 13.7705 15.1543C13.1566 15.5115 12.3203 15.75 11.1719 15.75H4.0625C3.15034 15.75 2.29461 15.4805 1.65332 14.7109C0.997597 13.9239 0.5 12.5363 0.5 10.1562V4.80469C0.500093 3.47591 0.925791 2.40571 1.62988 1.6709C2.28853 0.98365 3.22296 0.55559 4.37402 0.504883L4.60645 0.5Z" stroke="var(--stroke-0, white)"/>
<path id="Shape" d="M10.5167 8.99257C11.2699 8.0132 12.3628 7.80238 13.256 8.33828H13.2569C13.7776 8.64978 14.2333 9.05037 14.6808 9.48183C14.7313 9.53224 14.7808 9.58066 14.8263 9.62441C14.8748 9.67111 14.9185 9.71273 14.9591 9.75332C15.0661 9.86032 15.3951 10.1858 15.7501 10.5297V11.4447C15.7501 11.617 15.7426 11.79 15.7276 11.9613C15.6234 13.1382 15.1667 14.0785 14.4728 14.724C13.7796 15.3687 12.8168 15.7503 11.6427 15.7504H4.60654C3.48954 15.7503 2.56938 15.4117 1.8956 14.8227L1.76377 14.7016L1.754 14.6928L1.55869 14.4975C1.44637 14.375 1.34519 14.2431 1.25303 14.1049C1.31703 14.0277 1.38309 13.9492 1.44931 13.8695C1.59348 13.6961 1.74176 13.5173 1.88877 13.3383C2.32337 12.8199 2.75153 12.2961 3.17295 11.767C3.39813 11.4878 3.75888 11.047 4.23545 10.7484C4.6928 10.462 5.22541 10.3229 5.85556 10.5863L5.85654 10.5873C6.13727 10.7037 6.38761 10.8677 6.66611 11.0453V11.0463C6.98259 11.2575 7.28499 11.4507 7.58799 11.5316C7.94887 11.628 8.26556 11.5585 8.58213 11.3861C9.23593 11.0334 9.63701 10.3548 9.96592 9.81777C10.151 9.51845 10.3278 9.24173 10.5167 8.99257Z" stroke="var(--stroke-0, white)"/>
<path id="Shape_2" d="M7.68138 5.52256C7.67651 6.07709 7.45411 6.60753 7.06207 6.99973C6.67002 7.39193 6.13966 7.61453 5.58513 7.61962C4.44113 7.61962 3.48888 6.66656 3.48888 5.52256C3.48888 4.37856 4.44113 3.42468 5.58513 3.42468C6.72832 3.42468 7.68138 4.37856 7.68138 5.52256Z" fill="var(--fill-0, white)"/>
</g>
<path id="Vector 187" d="M19.375 8.12504V14.375C19.375 17.1364 17.1364 19.375 14.375 19.375L6.875 19.375" stroke="var(--stroke-0, white)" stroke-linecap="round"/>
</g>
</g>
<defs>
<clipPath id="clip0_0_208">
<rect width="20" height="20" fill="white"/>
</clipPath>
</defs>
</svg>
