<svg preserveAspectRatio="none" width="100%" height="100%" overflow="visible" style="display: block;" viewBox="0 0 335.483 302.558" fill="none" xmlns="http://www.w3.org/2000/svg">
<g id="Layer_1">
<path id="Union" d="M274.155 0.280262C289.88 -2.02494 304 10.2005 304 26.0898V156.993C304 208.536 267.973 251.627 219.725 262.492C212.079 264.294 204.111 265.25 195.926 265.252C180.661 265.249 165.685 261.874 152.065 255.538C138.44 261.877 123.456 265.253 108.184 265.253C88.4139 265.253 69.9158 259.697 54.167 250.066C21.7937 231.379 0.000106167 196.395 0 156.335V61.9443C4.18876e-05 49.101 9.42682 38.2332 22.1055 36.3808L99.2891 25.1025C115.014 22.7974 129.133 35.0228 129.133 50.9121V53.5312L174.867 48.2939V37.3281C174.867 24.3614 184.376 13.3701 197.178 11.5176L274.155 0.280262ZM195.946 265.253H195.905C195.912 265.253 195.919 265.252 195.926 265.252C195.933 265.252 195.939 265.253 195.946 265.253Z" fill="url(#paint0_linear_0_4)"/>
<path id="Vector" fill-rule="evenodd" clip-rule="evenodd" d="M216.892 54.5337C216.892 51.9815 218.744 49.8409 221.297 49.5116L256.904 44.5719C259.95 44.1602 262.708 46.5066 262.708 49.5939V161.438C262.708 198.321 232.823 228.248 195.898 228.248C179.103 228.248 163.749 222.032 152.017 211.823C140.285 222.073 124.93 228.248 108.135 228.248C71.2519 228.248 41.3253 198.363 41.3253 161.438V80.0145C41.3253 77.4623 43.1777 75.3218 45.7299 74.9924L81.3372 70.0527C84.3834 69.6411 87.1414 71.9874 87.1414 75.0748V105.66V143.655C87.1414 155.263 96.5269 164.649 108.135 164.649C119.744 164.649 129.088 155.304 129.129 143.737V119.45V116.28V95.3689C129.129 92.7755 131.064 90.5938 133.657 90.3056L146.953 88.8237C148.6 88.4532 150.288 88.2474 152.058 88.2474L169.306 86.3127C172.311 85.9834 174.945 88.3297 174.945 91.3759V105.578V144.231C174.945 155.84 184.331 165.225 195.939 165.225C207.548 165.225 216.769 155.963 216.933 144.519V54.5337H216.892Z" fill="var(--fill-0, white)"/>
<path id="Star 18" d="M262.043 175.548C264.574 168.706 274.251 168.706 276.782 175.548L280.454 185.471C287.307 203.991 301.909 218.593 320.429 225.446L330.352 229.118C337.194 231.649 337.194 241.326 330.352 243.857L320.429 247.529C301.909 254.382 287.307 268.984 280.454 287.504L276.782 297.427C274.251 304.269 264.574 304.269 262.043 297.427L258.371 287.504C251.518 268.984 236.916 254.382 218.396 247.529L208.473 243.857C201.632 241.326 201.632 231.649 208.473 229.118L218.396 225.446C236.916 218.593 251.518 203.991 258.371 185.471L262.043 175.548Z" fill="url(#paint1_linear_0_4)"/>
<path id="Star 19" d="M267.762 197.259C268.403 195.528 270.851 195.528 271.492 197.259C277.718 214.085 290.984 227.351 307.81 233.577C309.541 234.217 309.541 236.666 307.81 237.307C290.984 243.533 277.718 256.799 271.492 273.624C270.851 275.356 268.403 275.356 267.762 273.624C261.536 256.799 248.27 243.533 231.444 237.307C229.713 236.666 229.713 234.217 231.444 233.577C248.27 227.351 261.536 214.085 267.762 197.259Z" fill="var(--fill-0, white)"/>
</g>
<defs>
<linearGradient id="paint0_linear_0_4" x1="221.465" y1="1.96769" x2="60.3062" y2="277.399" gradientUnits="userSpaceOnUse">
<stop stop-color="#FFC163"/>
<stop offset="0.49" stop-color="#AB37F0"/>
<stop offset="1" stop-color="#0A92FF"/>
</linearGradient>
<linearGradient id="paint1_linear_0_4" x1="218.328" y1="-11.8309" x2="46.4673" y2="278.438" gradientUnits="userSpaceOnUse">
<stop stop-color="#FFC163"/>
<stop offset="0.49" stop-color="#AB37F0"/>
<stop offset="1" stop-color="#0A92FF"/>
</linearGradient>
</defs>
</svg>
